<svg width="226" height="62" viewBox="0 0 226 62" fill="none" xmlns="http://www.w3.org/2000/svg">
<path fill-rule="evenodd" clip-rule="evenodd" d="M77.6778 38.243L74.8915 33.4143H70.8185V38.243H68.4192V23.7377H75.6462C76.5266 23.728 77.3973 23.9695 78.1519 24.4234C78.9065 24.8773 79.5257 25.5243 79.9417 26.3066C80.3577 27.0888 80.5415 27.9676 80.4932 28.8464C80.4448 29.7252 80.1545 30.5847 79.6515 31.309C79.129 32.0816 78.3938 32.6804 77.5327 33.0377L80.4932 38.243H77.6778ZM75.6365 26.2003H70.8185V31.0193H75.6462C75.9654 31.0193 76.275 30.9517 76.5653 30.8262C76.8555 30.7006 77.1167 30.5171 77.3295 30.2854C77.6585 29.9474 77.8907 29.5224 77.9777 29.0492C78.0648 28.5857 78.0164 28.1028 77.8423 27.6586C77.6585 27.224 77.3586 26.8474 76.9619 26.577C76.5652 26.3066 76.1105 26.1617 75.6365 26.1617V26.2003ZM101.332 23.7377L94.0861 38.243H96.7756L101.323 29.1555L105.86 38.243H108.55L101.332 23.7377ZM131.827 23.7377H128.76L124.639 29.0879L120.537 23.7377H117.46L123.497 31.4732V38.243H125.896V31.3573L131.827 23.7377ZM144.123 23.7377H148.932C150.847 23.7474 152.676 24.5199 154.021 25.8816C155.375 27.2337 156.139 29.0782 156.149 30.9904C156.139 32.9122 155.375 34.7471 154.021 36.1087C152.666 37.4704 150.838 38.2333 148.922 38.243H144.114V23.7377H144.123ZM148.932 35.7804C150.209 35.7804 151.428 35.2685 152.327 34.3608C153.227 33.453 153.74 32.2265 153.74 30.9517C153.721 29.677 153.218 28.4505 152.318 27.5523C151.418 26.6542 150.199 26.1327 148.932 26.1231H146.503V35.7804H148.932ZM172.199 23.7377H169.8V38.243H172.199V23.7377ZM197.876 32.1879C197.885 32.9894 197.74 33.7813 197.431 34.5153C197.131 35.2492 196.676 35.9156 196.096 36.4661C195.254 37.3159 194.18 37.8857 193.009 38.1175C191.839 38.3492 190.629 38.2333 189.527 37.7698C188.424 37.3159 187.485 36.5337 186.827 35.539C186.169 34.5442 185.821 33.3757 185.821 32.1782V23.7377H188.22V32.1782C188.22 33.1439 188.598 34.0614 189.285 34.7374C189.962 35.4134 190.881 35.7997 191.839 35.7997C192.797 35.7997 193.716 35.4134 194.393 34.7374C195.07 34.0614 195.447 33.1343 195.447 32.1782V23.7377H197.866V32.1879H197.876ZM213.907 38.243V29.5707L218.744 34.409L223.562 29.5707V38.243H226V23.7377L218.744 30.9904L211.517 23.7377V38.243H213.907Z" fill="white"/>
<path d="M38.0698 44.5299H33.4066L29.8076 38.2333C31.2298 38.1464 32.6326 37.8566 33.9774 37.3738L38.0698 44.5299Z" fill="url(#paint0_linear_2889_1726)"/>
<path d="M47.6534 24.2309V43.1467L26.6839 55.2942L5.70587 43.1467V18.8518L26.6923 6.68738L42.8077 16.0309L45.2433 14.6247L26.6923 3.875L3.27881 17.4371V44.5529L26.6923 58.115L50.1059 44.5529V22.8247L47.6534 24.2309Z" fill="url(#paint1_linear_2889_1726)"/>
<path d="M20.8199 43.164H17.3151V31.3554H29.0091C30.1123 31.3469 31.1731 30.898 31.9538 30.1017C32.7346 29.3139 33.1674 28.2465 33.1758 27.1368C33.1843 26.5862 33.074 26.0441 32.8619 25.5358C32.6497 25.0275 32.3357 24.5701 31.9453 24.1889C31.5635 23.7992 31.1052 23.4858 30.6045 23.274C30.1038 23.0623 29.5607 22.9521 29.0091 22.9606H17.3151V19.3689H29.0176C31.0628 19.3774 33.0316 20.2075 34.4742 21.6561C35.9254 23.1131 36.7401 25.0784 36.757 27.1368C36.7655 28.7124 36.2903 30.2457 35.3908 31.5333C34.5591 32.7616 33.388 33.7273 32.0217 34.3033C30.6639 34.7354 29.2552 34.9471 27.838 34.9387H20.8199V43.164Z" fill="url(#paint2_linear_2889_1726)"/>
<path d="M45.2094 20.3005L47.6279 21.6474L50.0465 20.3005V17.4457L47.6279 16.0396L45.2094 17.4457V20.3005Z" fill="url(#paint3_linear_2889_1726)"/>
<defs>
<linearGradient id="paint0_linear_2889_1726" x1="59.5654" y1="31.2069" x2="2.9159" y2="53.7809" gradientUnits="userSpaceOnUse">
<stop stop-color="#C200FB"/>
<stop offset="0.4897" stop-color="#3772FF"/>
<stop offset="0.4898" stop-color="#3773FE"/>
<stop offset="1" stop-color="#5AC4BE"/>
</linearGradient>
<linearGradient id="paint1_linear_2889_1726" x1="51.5255" y1="21.1377" x2="1.83462" y2="40.9387" gradientUnits="userSpaceOnUse">
<stop stop-color="#C200FB"/>
<stop offset="0.4897" stop-color="#3772FF"/>
<stop offset="0.4898" stop-color="#3773FE"/>
<stop offset="1" stop-color="#5AC4BE"/>
</linearGradient>
<linearGradient id="paint2_linear_2889_1726" x1="50.5768" y1="18.7574" x2="0.886004" y2="38.5585" gradientUnits="userSpaceOnUse">
<stop stop-color="#C200FB"/>
<stop offset="0.4897" stop-color="#3772FF"/>
<stop offset="0.4898" stop-color="#3773FE"/>
<stop offset="1" stop-color="#5AC4BE"/>
</linearGradient>
<linearGradient id="paint3_linear_2889_1726" x1="50.2024" y1="17.8273" x2="0.51174" y2="37.6283" gradientUnits="userSpaceOnUse">
<stop stop-color="#C200FB"/>
<stop offset="0.4897" stop-color="#3772FF"/>
<stop offset="0.4898" stop-color="#3773FE"/>
<stop offset="1" stop-color="#5AC4BE"/>
</linearGradient>
</defs>
</svg>
