<svg xmlns="http://www.w3.org/2000/svg" width="237" height="35" viewBox="0 0 237 35" fill="none">
  <path d="M3.51196 32.7474V6.25233H26.8216C34.3102 6.25233 36.8415 8.81637 36.8415 12.4131V12.5912C36.8415 16.3304 33.607 17.7193 31.603 18.0398C34.275 18.4315 38.3533 19.8204 38.3533 24.5567V24.8772C38.3533 29.6135 35.4352 32.7474 26.8216 32.7474H3.51196ZM23.2706 12.8405H14.2351V16.1524H23.2706C25.1691 16.1524 25.802 15.547 25.802 14.5498V14.4786C25.802 13.3747 25.1691 12.8405 23.2706 12.8405ZM24.0793 22.2063H14.2351V25.8743H24.0793C26.5403 25.8743 26.8567 24.8416 26.8567 24.0225V23.9157C26.8567 23.061 26.5403 22.2063 24.0793 22.2063Z" fill="#0D1925"/>
  <path d="M51.0944 6.25233V32.7474H40.3713V6.25233H51.0944Z" fill="#0D1925"/>
  <path d="M64.0973 32.7474V14.2649H53.4093V6.25233H85.4732V14.2649H74.7853V32.7474H64.0973Z" fill="#0D1925"/>
  <path d="M145.89 5.78937H147.507C162.449 5.78937 164.98 13.5883 164.98 18.8944V19.9628C164.98 25.1977 162.484 33.2103 147.507 33.2103H145.89C131.018 33.2103 128.451 25.1977 128.451 19.9628V18.8944C128.487 13.5883 131.018 5.78937 145.89 5.78937ZM153.73 19.1793C153.73 17.0782 152.886 13.6239 146.698 13.6239C140.44 13.6239 139.667 17.0782 139.667 19.1793V19.5354C139.667 21.7078 140.581 25.2333 146.734 25.2333C152.886 25.2333 153.73 21.7078 153.73 19.5354V19.1793Z" fill="#0D1925"/>
  <path d="M182.518 33.1391H181.885C169.615 33.1391 166.169 25.7675 166.169 19.6423V19.0725C166.169 13.1254 169.544 5.78937 183.818 5.78937H185.049C199.956 5.78937 202.241 12.1995 202.241 15.725V15.9387H190.955C190.674 15.2621 189.76 13.5171 184.451 13.5171C178.615 13.5171 177.279 16.4016 177.279 19.2506V19.5711C177.279 22.3132 178.685 25.4826 184.311 25.4826C189.655 25.4826 191.061 23.6664 191.202 22.8117H183.467V17.7193H202.557V32.7474H195.35C195.139 31.8571 194.436 30.3258 193.874 29.5067C192.854 30.5751 189.514 33.1391 182.518 33.1391Z" fill="#0D1925"/>
  <path d="M205.699 6.25232H233.052V13.0185H216.458V15.8675H232.525V22.8117H216.458V25.9099H233.298V32.7474H205.699V6.25232Z" fill="#0D1925"/>
  <path d="M135.047 2.76508C133.489 3.10256 133.704 8.03446 133.869 8.82832L140.714 6.5158C138.328 2.88398 136.605 2.4276 135.047 2.76508Z" fill="#0D1925"/>
  <path d="M5.84182 2.76502C4.28403 3.1025 4.49849 8.0344 4.66405 8.82826L11.5086 6.51574C9.12298 2.88392 7.39962 2.42754 5.84182 2.76502Z" fill="#0D1925"/>
  <path d="M158.98 2.76508C160.538 3.10256 160.323 8.03446 160.158 8.82832L153.313 6.5158C155.699 2.88398 157.422 2.4276 158.98 2.76508Z" fill="#0D1925"/>
  <path d="M29.8157 2.76502C31.3735 3.1025 31.159 8.0344 30.9935 8.82826L24.149 6.51574C26.5346 2.88392 28.2579 2.42754 29.8157 2.76502Z" fill="#0D1925"/>
  <g filter="url(#filter0_d_1215_1045)">
    <path d="M87.7012 31.0462V6.19312H102.464C116.148 6.19312 119.182 12.3062 119.182 17.9181V18.9203C119.182 24.5991 116.418 31.0462 102.464 31.0462H87.7012ZM96.8015 12.5734V24.6325H101.385C108.868 24.6325 109.677 21.1584 109.677 18.653V18.4526C109.677 16.0475 108.834 12.5734 101.385 12.5734H96.8015Z" fill="#FF9223"/>
    <ellipse cx="120.935" cy="8.29464" rx="3.15228" ry="2.10152" fill="#FF9223"/>
    <ellipse cx="120.935" cy="28.9446" rx="3.15228" ry="2.10152" fill="#FF9223"/>
    <ellipse cx="124.44" cy="18.6195" rx="3.15228" ry="2.10152" fill="#FF9223"/>
  </g>
  <defs>
    <filter id="filter0_d_1215_1045" x="87.7012" y="6.19312" width="39.8913" height="26.6056" filterUnits="userSpaceOnUse" color-interpolation-filters="sRGB">
      <feFlood flood-opacity="0" result="BackgroundImageFix"/>
      <feColorMatrix in="SourceAlpha" type="matrix" values="0 0 0 0 0 0 0 0 0 0 0 0 0 0 0 0 0 0 127 0" result="hardAlpha"/>
      <feOffset dy="1.75259"/>
      <feComposite in2="hardAlpha" operator="out"/>
      <feColorMatrix type="matrix" values="0 0 0 0 0.854902 0 0 0 0 0.392157 0 0 0 0 0.156863 0 0 0 1 0"/>
      <feBlend mode="normal" in2="BackgroundImageFix" result="effect1_dropShadow_1215_1045"/>
      <feBlend mode="normal" in="SourceGraphic" in2="effect1_dropShadow_1215_1045" result="shape"/>
    </filter>
  </defs>
</svg>