<svg xmlns="http://www.w3.org/2000/svg" width="237" height="35" viewBox="0 0 237 35" fill="none">
  <path d="M3.51196 32.7474V6.25236H26.8216C34.3102 6.25236 36.8415 8.8164 36.8415 12.4132V12.5912C36.8415 16.3304 33.607 17.7193 31.603 18.0398C34.275 18.4315 38.3533 19.8204 38.3533 24.5567V24.8772C38.3533 29.6136 35.4352 32.7474 26.8216 32.7474H3.51196ZM23.2706 12.8405H14.2351V16.1524H23.2706C25.1691 16.1524 25.802 15.547 25.802 14.5499V14.4786C25.802 13.3747 25.1691 12.8405 23.2706 12.8405ZM24.0793 22.2064H14.2351V25.8744H24.0793C26.5403 25.8744 26.8567 24.8416 26.8567 24.0226V23.9157C26.8567 23.061 26.5403 22.2064 24.0793 22.2064Z" fill="#F5F0F0"/>
  <path d="M51.0944 6.25236V32.7474H40.3713V6.25236H51.0944Z" fill="#F5F0F0"/>
  <path d="M64.0973 32.7474V14.265H53.4093V6.25236H85.4732V14.265H74.7853V32.7474H64.0973Z" fill="#F5F0F0"/>
  <path d="M145.89 5.7894H147.507C162.449 5.7894 164.98 13.5883 164.98 18.8945V19.9628C164.98 25.1977 162.484 33.2103 147.507 33.2103H145.89C131.018 33.2103 128.451 25.1977 128.451 19.9628V18.8945C128.487 13.5883 131.018 5.7894 145.89 5.7894ZM153.73 19.1794C153.73 17.0783 152.886 13.624 146.698 13.624C140.44 13.624 139.667 17.0783 139.667 19.1794V19.5355C139.667 21.7078 140.581 25.2333 146.734 25.2333C152.886 25.2333 153.73 21.7078 153.73 19.5355V19.1794Z" fill="#F5F0F0"/>
  <path d="M182.518 33.1391H181.885C169.615 33.1391 166.169 25.7675 166.169 19.6423V19.0725C166.169 13.1254 169.544 5.7894 183.818 5.7894H185.049C199.956 5.7894 202.241 12.1995 202.241 15.725V15.9387H190.955C190.674 15.2621 189.76 13.5171 184.451 13.5171C178.615 13.5171 177.279 16.4017 177.279 19.2506V19.5711C177.279 22.3132 178.685 25.4826 184.311 25.4826C189.655 25.4826 191.061 23.6664 191.202 22.8117H183.467V17.7193H202.557V32.7474H195.35C195.139 31.8571 194.436 30.3258 193.874 29.5067C192.854 30.5751 189.514 33.1391 182.518 33.1391Z" fill="#F5F0F0"/>
  <path d="M205.699 6.25235H233.052V13.0186H216.458V15.8675H232.525V22.8117H216.458V25.91H233.298V32.7474H205.699V6.25235Z" fill="#F5F0F0"/>
  <path d="M135.047 2.76511C133.489 3.10259 133.704 8.03449 133.869 8.82835L140.714 6.51583C138.328 2.88401 136.605 2.42763 135.047 2.76511Z" fill="#F5F0F0"/>
  <path d="M5.84182 2.76502C4.28403 3.1025 4.49849 8.0344 4.66405 8.82826L11.5086 6.51574C9.12298 2.88392 7.39962 2.42754 5.84182 2.76502Z" fill="#F5F0F0"/>
  <path d="M158.98 2.76511C160.538 3.10259 160.323 8.03449 160.158 8.82835L153.313 6.51583C155.699 2.88401 157.422 2.42763 158.98 2.76511Z" fill="#F5F0F0"/>
  <path d="M29.8157 2.76502C31.3735 3.1025 31.159 8.0344 30.9935 8.82826L24.149 6.51574C26.5346 2.88392 28.2579 2.42754 29.8157 2.76502Z" fill="#F5F0F0"/>
  <g filter="url(#filter0_d_1215_1111)">
    <path d="M87.7012 31.0462V6.1931H102.464C116.148 6.1931 119.182 12.3061 119.182 17.9181V18.9203C119.182 24.5991 116.418 31.0462 102.464 31.0462H87.7012ZM96.8015 12.5734V24.6325H101.385C108.868 24.6325 109.677 21.1584 109.677 18.653V18.4526C109.677 16.0475 108.834 12.5734 101.385 12.5734H96.8015Z" fill="#FF9223"/>
    <ellipse cx="120.935" cy="8.29461" rx="3.15228" ry="2.10152" fill="#FF9223"/>
    <ellipse cx="120.935" cy="28.9446" rx="3.15228" ry="2.10152" fill="#FF9223"/>
    <ellipse cx="124.44" cy="18.6195" rx="3.15228" ry="2.10152" fill="#FF9223"/>
  </g>
  <defs>
    <filter id="filter0_d_1215_1111" x="87.7012" y="6.19308" width="39.8913" height="26.6057" filterUnits="userSpaceOnUse" color-interpolation-filters="sRGB">
      <feFlood flood-opacity="0" result="BackgroundImageFix"/>
      <feColorMatrix in="SourceAlpha" type="matrix" values="0 0 0 0 0 0 0 0 0 0 0 0 0 0 0 0 0 0 127 0" result="hardAlpha"/>
      <feOffset dy="1.75259"/>
      <feComposite in2="hardAlpha" operator="out"/>
      <feColorMatrix type="matrix" values="0 0 0 0 0.854902 0 0 0 0 0.392157 0 0 0 0 0.156863 0 0 0 1 0"/>
      <feBlend mode="normal" in2="BackgroundImageFix" result="effect1_dropShadow_1215_1111"/>
      <feBlend mode="normal" in="SourceGraphic" in2="effect1_dropShadow_1215_1111" result="shape"/>
    </filter>
  </defs>
</svg>