<svg width="187" height="100" viewBox="0 0 187 100" fill="none" xmlns="http://www.w3.org/2000/svg">
<path d="M2.78032 98.2167V77.2414H21.2338C27.1622 77.2414 29.1662 79.2713 29.1662 82.1187V82.2597C29.1662 85.2199 26.6056 86.3194 25.0191 86.5732C27.1344 86.8833 30.3631 87.9828 30.3631 91.7324V91.9861C30.3631 95.7357 28.0529 98.2167 21.2338 98.2167H2.78032ZM18.4226 82.457H11.2695V85.079H18.4226C19.9256 85.079 20.4266 84.5997 20.4266 83.8103V83.7539C20.4266 82.8799 19.9256 82.457 18.4226 82.457ZM19.0628 89.8717H11.2695V92.7755H19.0628C21.0111 92.7755 21.2616 91.9579 21.2616 91.3095V91.2249C21.2616 90.5483 21.0111 89.8717 19.0628 89.8717Z" fill="#F5F0F0"/>
<path d="M40.4498 77.2414V98.2167H31.9606V77.2414H40.4498Z" fill="#F5F0F0"/>
<path d="M50.7437 98.2167V83.5847H42.2824V77.2414H67.6663V83.5847H59.205V98.2167H50.7437Z" fill="#F5F0F0"/>
<path d="M109.954 76.8749H111.235C123.064 76.8749 125.068 83.0491 125.068 87.2498V88.0955C125.068 92.2398 123.092 98.5832 111.235 98.5832H109.954C98.1809 98.5832 96.1491 92.2398 96.1491 88.0955V87.2498C96.1769 83.0491 98.1809 76.8749 109.954 76.8749ZM116.161 87.4753C116.161 85.8119 115.493 83.0773 110.595 83.0773C105.64 83.0773 105.028 85.8119 105.028 87.4753V87.7572C105.028 89.477 105.752 92.268 110.622 92.268C115.493 92.268 116.161 89.477 116.161 87.7572V87.4753Z" fill="#F5F0F0"/>
<path d="M138.951 98.5268H138.45C128.737 98.5268 126.009 92.6909 126.009 87.8418V87.3907C126.009 82.6826 128.681 76.8749 139.981 76.8749H140.955C152.757 76.8749 154.566 81.9496 154.566 84.7406V84.9098H145.631C145.409 84.3741 144.685 82.9927 140.482 82.9927C135.862 82.9927 134.804 85.2763 134.804 87.5317V87.7854C134.804 89.9562 135.918 92.4654 140.371 92.4654C144.602 92.4654 145.715 91.0276 145.826 90.3509H139.703V86.3194H154.816V98.2167H149.111C148.944 97.5118 148.387 96.2996 147.942 95.6511C147.134 96.4969 144.49 98.5268 138.951 98.5268Z" fill="#F5F0F0"/>
<path d="M157.304 77.2414H178.958V82.598H165.821V84.8534H178.54V90.3509H165.821V92.8037H179.153V98.2167H157.304V77.2414Z" fill="#F5F0F0"/>
<path d="M101.371 74.4807C100.137 74.7479 100.307 78.6523 100.438 79.2808L105.857 77.45C103.968 74.5748 102.604 74.2135 101.371 74.4807Z" fill="#F5F0F0"/>
<path d="M4.62477 74.4806C3.39152 74.7478 3.5613 78.6522 3.69237 79.2807L9.11095 77.45C7.22235 74.5748 5.85803 74.2135 4.62477 74.4806Z" fill="#F5F0F0"/>
<path d="M120.317 74.4807C121.551 74.7479 121.381 78.6523 121.25 79.2808L115.831 77.45C117.72 74.5748 119.084 74.2135 120.317 74.4807Z" fill="#F5F0F0"/>
<path d="M23.6041 74.4806C24.8374 74.7478 24.6676 78.6522 24.5365 79.2807L19.1179 77.45C21.0065 74.5748 22.3709 74.2135 23.6041 74.4806Z" fill="#F5F0F0"/>
<path d="M69 98V77H81.1927C92.4946 77 95 82.1653 95 86.9073V87.754C95 92.5524 92.7173 98 81.1927 98H69ZM76.5161 82.3911V92.5806H80.3019C86.4818 92.5806 87.1499 89.6452 87.1499 87.5282V87.3589C87.1499 85.3266 86.454 82.3911 80.3019 82.3911H76.5161Z" fill="#F5F0F0"/>
<g filter="url(#filter0_d_1215_1124)">
<path d="M54.8168 56.5V0H88.3352C119.405 0 126.292 13.8972 126.292 26.6552V28.9335C126.292 41.8434 120.017 56.5 88.3352 56.5H54.8168ZM75.4788 14.5047V41.9194H85.8864C102.875 41.9194 104.712 34.0215 104.712 28.3259V27.8703C104.712 22.4026 102.799 14.5047 85.8864 14.5047H75.4788Z" fill="#FF9223"/>
<ellipse cx="130.273" cy="4.77752" rx="7.15713" ry="4.77752" fill="#FF9223"/>
<ellipse cx="130.273" cy="51.7223" rx="7.15713" ry="4.77752" fill="#FF9223"/>
<ellipse cx="138.231" cy="28.2497" rx="7.15713" ry="4.77752" fill="#FF9223"/>
</g>
<defs>
<filter id="filter0_d_1215_1124" x="54.8168" y="0" width="90.5716" height="60.4583" filterUnits="userSpaceOnUse" color-interpolation-filters="sRGB">
<feFlood flood-opacity="0" result="BackgroundImageFix"/>
<feColorMatrix in="SourceAlpha" type="matrix" values="0 0 0 0 0 0 0 0 0 0 0 0 0 0 0 0 0 0 127 0" result="hardAlpha"/>
<feOffset dy="3.95833"/>
<feComposite in2="hardAlpha" operator="out"/>
<feColorMatrix type="matrix" values="0 0 0 0 0.854902 0 0 0 0 0.392157 0 0 0 0 0.156863 0 0 0 1 0"/>
<feBlend mode="normal" in2="BackgroundImageFix" result="effect1_dropShadow_1215_1124"/>
<feBlend mode="normal" in="SourceGraphic" in2="effect1_dropShadow_1215_1124" result="shape"/>
</filter>
</defs>
</svg>
